<?xml version="1.0" encoding="UTF-8" standalone="no"?>
<!DOCTYPE svg PUBLIC "-//W3C//DTD SVG 1.1//EN"
 "http://www.w3.org/Graphics/SVG/1.1/DTD/svg11.dtd">
<!-- Generated by graphviz version 2.47.1 (20210418.0311)
 -->
<!-- Title: snakemake_dag Pages: 1 -->
<svg width="4906pt" height="692pt"
 viewBox="0.00 0.00 4906.00 692.00" xmlns="http://www.w3.org/2000/svg" xmlns:xlink="http://www.w3.org/1999/xlink">
<g id="graph0" class="graph" transform="scale(1 1) rotate(0) translate(4 688)">
<title>snakemake_dag</title>
<polygon fill="white" stroke="transparent" points="-4,4 -4,-688 4902,-688 4902,4 -4,4"/>
<!-- 0 -->
<g id="node1" class="node">
<title>0</title>
<path fill="none" stroke="#5682d8" stroke-width="2" d="M2479,-36C2479,-36 2449,-36 2449,-36 2443,-36 2437,-30 2437,-24 2437,-24 2437,-12 2437,-12 2437,-6 2443,0 2449,0 2449,0 2479,0 2479,0 2485,0 2491,-6 2491,-12 2491,-12 2491,-24 2491,-24 2491,-30 2485,-36 2479,-36"/>
<text text-anchor="middle" x="2464" y="-15.5" font-family="sans" font-size="10.00">all</text>
</g>
<!-- 1 -->
<g id="node2" class="node">
<title>1</title>
<path fill="none" stroke="#b6d856" stroke-width="2" d="M166,-540C166,-540 74,-540 74,-540 68,-540 62,-534 62,-528 62,-528 62,-516 62,-516 62,-510 68,-504 74,-504 74,-504 166,-504 166,-504 172,-504 178,-510 178,-516 178,-516 178,-528 178,-528 178,-534 172,-540 166,-540"/>
<text text-anchor="middle" x="120" y="-519.5" font-family="sans" font-size="10.00">HISAT_paired_males</text>
</g>
<!-- 1&#45;&gt;0 -->
<g id="edge28" class="edge">
<title>1&#45;&gt;0</title>
<path fill="none" stroke="grey" stroke-width="2" d="M78.38,-503.9C61.7,-495.27 43.51,-483.33 31,-468 4.52,-435.55 0,-420.89 0,-379 0,-379 0,-379 0,-161 0,-116.87 6.77,-95.69 44,-72 96.48,-38.6 2122.88,-21.64 2426.18,-19.29"/>
<polygon fill="grey" stroke="grey" stroke-width="2" points="2426.65,-22.78 2436.63,-19.2 2426.6,-15.78 2426.65,-22.78"/>
</g>
<!-- 5 -->
<g id="node6" class="node">
<title>5</title>
<path fill="none" stroke="#8fd856" stroke-width="2" d="M187.5,-468C187.5,-468 52.5,-468 52.5,-468 46.5,-468 40.5,-462 40.5,-456 40.5,-456 40.5,-444 40.5,-444 40.5,-438 46.5,-432 52.5,-432 52.5,-432 187.5,-432 187.5,-432 193.5,-432 199.5,-438 199.5,-444 199.5,-444 199.5,-456 199.5,-456 199.5,-462 193.5,-468 187.5,-468"/>
<text text-anchor="middle" x="120" y="-447.5" font-family="sans" font-size="10.00">HISAT_samtools_view_males</text>
</g>
<!-- 1&#45;&gt;5 -->
<g id="edge56" class="edge">
<title>1&#45;&gt;5</title>
<path fill="none" stroke="grey" stroke-width="2" d="M120,-503.7C120,-495.98 120,-486.71 120,-478.11"/>
<polygon fill="grey" stroke="grey" stroke-width="2" points="123.5,-478.1 120,-468.1 116.5,-478.1 123.5,-478.1"/>
</g>
<!-- 2 -->
<g id="node3" class="node">
<title>2</title>
<path fill="none" stroke="#d88d56" stroke-width="2" d="M1836,-612C1836,-612 1780,-612 1780,-612 1774,-612 1768,-606 1768,-600 1768,-600 1768,-588 1768,-588 1768,-582 1774,-576 1780,-576 1780,-576 1836,-576 1836,-576 1842,-576 1848,-582 1848,-588 1848,-588 1848,-600 1848,-600 1848,-606 1842,-612 1836,-612"/>
<text text-anchor="middle" x="1808" y="-591.5" font-family="sans" font-size="10.00">trimmomatic</text>
</g>
<!-- 2&#45;&gt;1 -->
<g id="edge53" class="edge">
<title>2&#45;&gt;1</title>
<path fill="none" stroke="grey" stroke-width="2" d="M1767.94,-591.34C1546.38,-582.15 470.92,-537.55 188.2,-525.83"/>
<polygon fill="grey" stroke="grey" stroke-width="2" points="188.22,-522.33 178.08,-525.41 187.93,-529.32 188.22,-522.33"/>
</g>
<!-- 4 -->
<g id="node5" class="node">
<title>4</title>
<path fill="none" stroke="#56d8c1" stroke-width="2" d="M1556,-540C1556,-540 1440,-540 1440,-540 1434,-540 1428,-534 1428,-528 1428,-528 1428,-516 1428,-516 1428,-510 1434,-504 1440,-504 1440,-504 1556,-504 1556,-504 1562,-504 1568,-510 1568,-516 1568,-516 1568,-528 1568,-528 1568,-534 1562,-540 1556,-540"/>
<text text-anchor="middle" x="1498" y="-519.5" font-family="sans" font-size="10.00">HISAT_DEF_paired_males</text>
</g>
<!-- 2&#45;&gt;4 -->
<g id="edge55" class="edge">
<title>2&#45;&gt;4</title>
<path fill="none" stroke="grey" stroke-width="2" d="M1767.79,-583.92C1719.92,-573.11 1638.8,-554.79 1577.99,-541.06"/>
<polygon fill="grey" stroke="grey" stroke-width="2" points="1578.55,-537.6 1568.03,-538.81 1577.01,-544.43 1578.55,-537.6"/>
</g>
<!-- 31 -->
<g id="node32" class="node">
<title>31</title>
<path fill="none" stroke="#5682d8" stroke-width="2" d="M2686.5,-468C2686.5,-468 2597.5,-468 2597.5,-468 2591.5,-468 2585.5,-462 2585.5,-456 2585.5,-456 2585.5,-444 2585.5,-444 2585.5,-438 2591.5,-432 2597.5,-432 2597.5,-432 2686.5,-432 2686.5,-432 2692.5,-432 2698.5,-438 2698.5,-444 2698.5,-444 2698.5,-456 2698.5,-456 2698.5,-462 2692.5,-468 2686.5,-468"/>
<text text-anchor="middle" x="2642" y="-447.5" font-family="sans" font-size="10.00">STAR_paired_males</text>
</g>
<!-- 2&#45;&gt;31 -->
<g id="edge82" class="edge">
<title>2&#45;&gt;31</title>
<path fill="none" stroke="grey" stroke-width="2" d="M1848.23,-586.15C1981.45,-563.47 2409.19,-490.64 2575.23,-462.37"/>
<polygon fill="grey" stroke="grey" stroke-width="2" points="2576.04,-465.78 2585.31,-460.65 2574.87,-458.88 2576.04,-465.78"/>
</g>
<!-- 32 -->
<g id="node33" class="node">
<title>32</title>
<path fill="none" stroke="#d6d856" stroke-width="2" d="M3795.5,-468C3795.5,-468 3652.5,-468 3652.5,-468 3646.5,-468 3640.5,-462 3640.5,-456 3640.5,-456 3640.5,-444 3640.5,-444 3640.5,-438 3646.5,-432 3652.5,-432 3652.5,-432 3795.5,-432 3795.5,-432 3801.5,-432 3807.5,-438 3807.5,-444 3807.5,-444 3807.5,-456 3807.5,-456 3807.5,-462 3801.5,-468 3795.5,-468"/>
<text text-anchor="middle" x="3724" y="-447.5" font-family="sans" font-size="10.00">STAR_DEF_STAR_paired_males</text>
</g>
<!-- 2&#45;&gt;32 -->
<g id="edge83" class="edge">
<title>2&#45;&gt;32</title>
<path fill="none" stroke="grey" stroke-width="2" d="M1848.02,-590.03C2082.89,-572.63 3283.81,-483.62 3630.3,-457.94"/>
<polygon fill="grey" stroke="grey" stroke-width="2" points="3630.59,-461.43 3640.3,-457.2 3630.07,-454.45 3630.59,-461.43"/>
</g>
<!-- 3 -->
<g id="node4" class="node">
<title>3</title>
<path fill="none" stroke="#56d8b1" stroke-width="2" d="M1845,-684C1845,-684 1771,-684 1771,-684 1765,-684 1759,-678 1759,-672 1759,-672 1759,-660 1759,-660 1759,-654 1765,-648 1771,-648 1771,-648 1845,-648 1845,-648 1851,-648 1857,-654 1857,-660 1857,-660 1857,-672 1857,-672 1857,-678 1851,-684 1845,-684"/>
<text text-anchor="middle" x="1808" y="-663.5" font-family="sans" font-size="10.00">mk_sy_ln_fastqs</text>
</g>
<!-- 3&#45;&gt;2 -->
<g id="edge54" class="edge">
<title>3&#45;&gt;2</title>
<path fill="none" stroke="grey" stroke-width="2" d="M1808,-647.7C1808,-639.98 1808,-630.71 1808,-622.11"/>
<polygon fill="grey" stroke="grey" stroke-width="2" points="1811.5,-622.1 1808,-612.1 1804.5,-622.1 1811.5,-622.1"/>
</g>
<!-- 4&#45;&gt;0 -->
<g id="edge41" class="edge">
<title>4&#45;&gt;0</title>
<path fill="none" stroke="grey" stroke-width="2" d="M1448.46,-503.99C1430.19,-495.61 1410.64,-483.82 1397,-468 1369.65,-436.27 1366,-420.89 1366,-379 1366,-379 1366,-379 1366,-161 1366,-116.68 1373.84,-96.16 1411,-72 1497.57,-15.72 2249.59,-17.48 2426.74,-18.68"/>
<polygon fill="grey" stroke="grey" stroke-width="2" points="2426.84,-22.19 2436.86,-18.76 2426.89,-15.19 2426.84,-22.19"/>
</g>
<!-- 6 -->
<g id="node7" class="node">
<title>6</title>
<path fill="none" stroke="#68d856" stroke-width="2" d="M1577.5,-468C1577.5,-468 1418.5,-468 1418.5,-468 1412.5,-468 1406.5,-462 1406.5,-456 1406.5,-456 1406.5,-444 1406.5,-444 1406.5,-438 1412.5,-432 1418.5,-432 1418.5,-432 1577.5,-432 1577.5,-432 1583.5,-432 1589.5,-438 1589.5,-444 1589.5,-444 1589.5,-456 1589.5,-456 1589.5,-462 1583.5,-468 1577.5,-468"/>
<text text-anchor="middle" x="1498" y="-447.5" font-family="sans" font-size="10.00">HISAT_DEF_samtools_view_males</text>
</g>
<!-- 4&#45;&gt;6 -->
<g id="edge57" class="edge">
<title>4&#45;&gt;6</title>
<path fill="none" stroke="grey" stroke-width="2" d="M1498,-503.7C1498,-495.98 1498,-486.71 1498,-478.11"/>
<polygon fill="grey" stroke="grey" stroke-width="2" points="1501.5,-478.1 1498,-468.1 1494.5,-478.1 1501.5,-478.1"/>
</g>
<!-- 5&#45;&gt;0 -->
<g id="edge39" class="edge">
<title>5&#45;&gt;0</title>
<path fill="none" stroke="grey" stroke-width="2" d="M92.06,-431.77C79.51,-422.64 65.61,-410.34 57,-396 36.18,-361.33 38,-347.45 38,-307 38,-307 38,-307 38,-161 38,-116.47 46.23,-95.58 84,-72 135.87,-39.63 2126.49,-21.81 2426.34,-19.31"/>
<polygon fill="grey" stroke="grey" stroke-width="2" points="2426.71,-22.8 2436.68,-19.22 2426.65,-15.8 2426.71,-22.8"/>
</g>
<!-- 7 -->
<g id="node8" class="node">
<title>7</title>
<path fill="none" stroke="#56c1d8" stroke-width="2" d="M185.5,-396C185.5,-396 78.5,-396 78.5,-396 72.5,-396 66.5,-390 66.5,-384 66.5,-384 66.5,-372 66.5,-372 66.5,-366 72.5,-360 78.5,-360 78.5,-360 185.5,-360 185.5,-360 191.5,-360 197.5,-366 197.5,-372 197.5,-372 197.5,-384 197.5,-384 197.5,-390 191.5,-396 185.5,-396"/>
<text text-anchor="middle" x="132" y="-375.5" font-family="sans" font-size="10.00">HISAT_bam_sort_males</text>
</g>
<!-- 5&#45;&gt;7 -->
<g id="edge58" class="edge">
<title>5&#45;&gt;7</title>
<path fill="none" stroke="grey" stroke-width="2" d="M122.97,-431.7C124.29,-423.98 125.88,-414.71 127.35,-406.11"/>
<polygon fill="grey" stroke="grey" stroke-width="2" points="130.83,-406.55 129.07,-396.1 123.93,-405.37 130.83,-406.55"/>
</g>
<!-- 6&#45;&gt;0 -->
<g id="edge52" class="edge">
<title>6&#45;&gt;0</title>
<path fill="none" stroke="grey" stroke-width="2" d="M1463.22,-431.94C1448.69,-423.13 1432.92,-411.04 1423,-396 1400.73,-362.23 1404,-347.45 1404,-307 1404,-307 1404,-307 1404,-161 1404,-116.27 1413.31,-96.09 1451,-72 1534.49,-18.65 2253.98,-18.14 2426.8,-18.8"/>
<polygon fill="grey" stroke="grey" stroke-width="2" points="2426.91,-22.3 2436.92,-18.84 2426.93,-15.3 2426.91,-22.3"/>
</g>
<!-- 8 -->
<g id="node9" class="node">
<title>8</title>
<path fill="none" stroke="#68d856" stroke-width="2" d="M1575.5,-396C1575.5,-396 1444.5,-396 1444.5,-396 1438.5,-396 1432.5,-390 1432.5,-384 1432.5,-384 1432.5,-372 1432.5,-372 1432.5,-366 1438.5,-360 1444.5,-360 1444.5,-360 1575.5,-360 1575.5,-360 1581.5,-360 1587.5,-366 1587.5,-372 1587.5,-372 1587.5,-384 1587.5,-384 1587.5,-390 1581.5,-396 1575.5,-396"/>
<text text-anchor="middle" x="1510" y="-375.5" font-family="sans" font-size="10.00">HISAT_DEF_bam_sort_males</text>
</g>
<!-- 6&#45;&gt;8 -->
<g id="edge59" class="edge">
<title>6&#45;&gt;8</title>
<path fill="none" stroke="grey" stroke-width="2" d="M1500.97,-431.7C1502.29,-423.98 1503.88,-414.71 1505.35,-406.11"/>
<polygon fill="grey" stroke="grey" stroke-width="2" points="1508.83,-406.55 1507.07,-396.1 1501.93,-405.37 1508.83,-406.55"/>
</g>
<!-- 7&#45;&gt;0 -->
<g id="edge14" class="edge">
<title>7&#45;&gt;0</title>
<path fill="none" stroke="grey" stroke-width="2" d="M117.43,-359.91C109.69,-350.01 100.63,-336.97 95,-324 78.88,-286.9 76,-275.45 76,-235 76,-235 76,-235 76,-161 76,-115.63 87.1,-95.36 126,-72 177.47,-41.09 2130.49,-22.05 2426.55,-19.34"/>
<polygon fill="grey" stroke="grey" stroke-width="2" points="2426.8,-22.83 2436.76,-19.24 2426.73,-15.83 2426.8,-22.83"/>
</g>
<!-- 9 -->
<g id="node10" class="node">
<title>9</title>
<path fill="none" stroke="#78d856" stroke-width="2" d="M226,-324C226,-324 116,-324 116,-324 110,-324 104,-318 104,-312 104,-312 104,-300 104,-300 104,-294 110,-288 116,-288 116,-288 226,-288 226,-288 232,-288 238,-294 238,-300 238,-300 238,-312 238,-312 238,-318 232,-324 226,-324"/>
<text text-anchor="middle" x="171" y="-303.5" font-family="sans" font-size="10.00">HISAT_MarkDups_males</text>
</g>
<!-- 7&#45;&gt;9 -->
<g id="edge60" class="edge">
<title>7&#45;&gt;9</title>
<path fill="none" stroke="grey" stroke-width="2" d="M141.64,-359.7C146.13,-351.64 151.56,-341.89 156.52,-332.98"/>
<polygon fill="grey" stroke="grey" stroke-width="2" points="159.66,-334.54 161.47,-324.1 153.55,-331.14 159.66,-334.54"/>
</g>
<!-- 8&#45;&gt;0 -->
<g id="edge1" class="edge">
<title>8&#45;&gt;0</title>
<path fill="none" stroke="grey" stroke-width="2" d="M1489.56,-359.79C1479.49,-350.25 1468.04,-337.57 1461,-324 1442.38,-288.09 1442,-275.45 1442,-235 1442,-235 1442,-235 1442,-161 1442,-114.96 1455.61,-95.83 1495,-72 1575.79,-23.11 2258.24,-19.2 2426.58,-18.99"/>
<polygon fill="grey" stroke="grey" stroke-width="2" points="2426.69,-22.49 2436.69,-18.98 2426.69,-15.49 2426.69,-22.49"/>
</g>
<!-- 10 -->
<g id="node11" class="node">
<title>10</title>
<path fill="none" stroke="#d87556" stroke-width="2" d="M1616,-324C1616,-324 1482,-324 1482,-324 1476,-324 1470,-318 1470,-312 1470,-312 1470,-300 1470,-300 1470,-294 1476,-288 1482,-288 1482,-288 1616,-288 1616,-288 1622,-288 1628,-294 1628,-300 1628,-300 1628,-312 1628,-312 1628,-318 1622,-324 1616,-324"/>
<text text-anchor="middle" x="1549" y="-303.5" font-family="sans" font-size="10.00">HISAT_DEF_MarkDups_males</text>
</g>
<!-- 8&#45;&gt;10 -->
<g id="edge61" class="edge">
<title>8&#45;&gt;10</title>
<path fill="none" stroke="grey" stroke-width="2" d="M1519.64,-359.7C1524.13,-351.64 1529.56,-341.89 1534.52,-332.98"/>
<polygon fill="grey" stroke="grey" stroke-width="2" points="1537.66,-334.54 1539.47,-324.1 1531.55,-331.14 1537.66,-334.54"/>
</g>
<!-- 9&#45;&gt;0 -->
<g id="edge48" class="edge">
<title>9&#45;&gt;0</title>
<path fill="none" stroke="grey" stroke-width="2" d="M161.74,-287.72C140.04,-244.58 91.95,-131.4 150,-72 191.53,-29.51 2132.48,-20.29 2426.78,-19.14"/>
<polygon fill="grey" stroke="grey" stroke-width="2" points="2426.94,-22.63 2436.92,-19.1 2426.91,-15.63 2426.94,-22.63"/>
</g>
<!-- 11 -->
<g id="node12" class="node">
<title>11</title>
<path fill="none" stroke="#d89556" stroke-width="2" d="M528.5,-252C528.5,-252 401.5,-252 401.5,-252 395.5,-252 389.5,-246 389.5,-240 389.5,-240 389.5,-228 389.5,-228 389.5,-222 395.5,-216 401.5,-216 401.5,-216 528.5,-216 528.5,-216 534.5,-216 540.5,-222 540.5,-228 540.5,-228 540.5,-240 540.5,-240 540.5,-246 534.5,-252 528.5,-252"/>
<text text-anchor="middle" x="465" y="-231.5" font-family="sans" font-size="10.00">HISAT_AddReadGrps_males</text>
</g>
<!-- 9&#45;&gt;11 -->
<g id="edge62" class="edge">
<title>9&#45;&gt;11</title>
<path fill="none" stroke="grey" stroke-width="2" d="M238.08,-289.03C281.34,-278.73 337.87,-265.27 383.69,-254.36"/>
<polygon fill="grey" stroke="grey" stroke-width="2" points="384.67,-257.72 393.59,-252 383.05,-250.91 384.67,-257.72"/>
</g>
<!-- 10&#45;&gt;0 -->
<g id="edge24" class="edge">
<title>10&#45;&gt;0</title>
<path fill="none" stroke="grey" stroke-width="2" d="M1538.89,-287.86C1515.09,-245.07 1461.7,-132.61 1519,-72 1550.72,-38.45 2255.38,-22.95 2426.71,-19.68"/>
<polygon fill="grey" stroke="grey" stroke-width="2" points="2426.83,-23.17 2436.76,-19.49 2426.69,-16.17 2426.83,-23.17"/>
</g>
<!-- 12 -->
<g id="node13" class="node">
<title>12</title>
<path fill="none" stroke="#70d856" stroke-width="2" d="M1832.5,-252C1832.5,-252 1681.5,-252 1681.5,-252 1675.5,-252 1669.5,-246 1669.5,-240 1669.5,-240 1669.5,-228 1669.5,-228 1669.5,-222 1675.5,-216 1681.5,-216 1681.5,-216 1832.5,-216 1832.5,-216 1838.5,-216 1844.5,-222 1844.5,-228 1844.5,-228 1844.5,-240 1844.5,-240 1844.5,-246 1838.5,-252 1832.5,-252"/>
<text text-anchor="middle" x="1757" y="-231.5" font-family="sans" font-size="10.00">HISAT_DEF_AddReadGrps_males</text>
</g>
<!-- 10&#45;&gt;12 -->
<g id="edge63" class="edge">
<title>10&#45;&gt;12</title>
<path fill="none" stroke="grey" stroke-width="2" d="M1599.62,-287.97C1628.81,-278.14 1665.69,-265.73 1696.42,-255.39"/>
<polygon fill="grey" stroke="grey" stroke-width="2" points="1697.8,-258.62 1706.16,-252.11 1695.56,-251.98 1697.8,-258.62"/>
</g>
<!-- 11&#45;&gt;0 -->
<g id="edge36" class="edge">
<title>11&#45;&gt;0</title>
<path fill="none" stroke="grey" stroke-width="2" d="M389.21,-219.86C279.29,-197.85 96.47,-148.27 171,-72 212.13,-29.91 2133.48,-20.36 2426.65,-19.14"/>
<polygon fill="grey" stroke="grey" stroke-width="2" points="2426.79,-22.64 2436.77,-19.1 2426.76,-15.64 2426.79,-22.64"/>
</g>
<!-- 13 -->
<g id="node14" class="node">
<title>13</title>
<path fill="none" stroke="#568ad8" stroke-width="2" d="M308,-108C308,-108 192,-108 192,-108 186,-108 180,-102 180,-96 180,-96 180,-84 180,-84 180,-78 186,-72 192,-72 192,-72 308,-72 308,-72 314,-72 320,-78 320,-84 320,-84 320,-96 320,-96 320,-102 314,-108 308,-108"/>
<text text-anchor="middle" x="250" y="-87.5" font-family="sans" font-size="10.00">HISAT_index_bam_males</text>
</g>
<!-- 11&#45;&gt;13 -->
<g id="edge64" class="edge">
<title>11&#45;&gt;13</title>
<path fill="none" stroke="grey" stroke-width="2" d="M439.07,-215.87C400.41,-190.34 327.6,-142.25 284.49,-113.78"/>
<polygon fill="grey" stroke="grey" stroke-width="2" points="286.3,-110.78 276.03,-108.19 282.44,-116.62 286.3,-110.78"/>
</g>
<!-- 15 -->
<g id="node16" class="node">
<title>15</title>
<path fill="none" stroke="#56d882" stroke-width="2" d="M463.5,-108C463.5,-108 350.5,-108 350.5,-108 344.5,-108 338.5,-102 338.5,-96 338.5,-96 338.5,-84 338.5,-84 338.5,-78 344.5,-72 350.5,-72 350.5,-72 463.5,-72 463.5,-72 469.5,-72 475.5,-78 475.5,-84 475.5,-84 475.5,-96 475.5,-96 475.5,-102 469.5,-108 463.5,-108"/>
<text text-anchor="middle" x="407" y="-87.5" font-family="sans" font-size="10.00">HISAT_stats_bam_males</text>
</g>
<!-- 11&#45;&gt;15 -->
<g id="edge66" class="edge">
<title>11&#45;&gt;15</title>
<path fill="none" stroke="grey" stroke-width="2" d="M449.22,-215.56C441.14,-205.76 431.81,-192.92 426,-180 417.16,-160.34 412.35,-136.35 409.78,-118.23"/>
<polygon fill="grey" stroke="grey" stroke-width="2" points="413.22,-117.54 408.48,-108.06 406.28,-118.43 413.22,-117.54"/>
</g>
<!-- 17 -->
<g id="node18" class="node">
<title>17</title>
<path fill="none" stroke="#56d8c1" stroke-width="2" d="M601,-180C601,-180 447,-180 447,-180 441,-180 435,-174 435,-168 435,-168 435,-156 435,-156 435,-150 441,-144 447,-144 447,-144 601,-144 601,-144 607,-144 613,-150 613,-156 613,-156 613,-168 613,-168 613,-174 607,-180 601,-180"/>
<text text-anchor="middle" x="524" y="-159.5" font-family="sans" font-size="10.00">HISAT_samSub_chr8_bam_males</text>
</g>
<!-- 11&#45;&gt;17 -->
<g id="edge68" class="edge">
<title>11&#45;&gt;17</title>
<path fill="none" stroke="grey" stroke-width="2" d="M479.58,-215.7C486.66,-207.3 495.28,-197.07 503.05,-187.86"/>
<polygon fill="grey" stroke="grey" stroke-width="2" points="505.81,-190.01 509.58,-180.1 500.46,-185.49 505.81,-190.01"/>
</g>
<!-- 18 -->
<g id="node19" class="node">
<title>18</title>
<path fill="none" stroke="#56d85b" stroke-width="2" d="M801.5,-180C801.5,-180 646.5,-180 646.5,-180 640.5,-180 634.5,-174 634.5,-168 634.5,-168 634.5,-156 634.5,-156 634.5,-150 640.5,-144 646.5,-144 646.5,-144 801.5,-144 801.5,-144 807.5,-144 813.5,-150 813.5,-156 813.5,-156 813.5,-168 813.5,-168 813.5,-174 807.5,-180 801.5,-180"/>
<text text-anchor="middle" x="724" y="-159.5" font-family="sans" font-size="10.00">HISAT_samSub_chrX_bam_males</text>
</g>
<!-- 11&#45;&gt;18 -->
<g id="edge69" class="edge">
<title>11&#45;&gt;18</title>
<path fill="none" stroke="grey" stroke-width="2" d="M528.03,-215.97C565.16,-205.93 612.3,-193.19 651.03,-182.72"/>
<polygon fill="grey" stroke="grey" stroke-width="2" points="651.95,-186.1 660.69,-180.11 650.12,-179.34 651.95,-186.1"/>
</g>
<!-- 19 -->
<g id="node20" class="node">
<title>19</title>
<path fill="none" stroke="#56d892" stroke-width="2" d="M1021,-180C1021,-180 867,-180 867,-180 861,-180 855,-174 855,-168 855,-168 855,-156 855,-156 855,-150 861,-144 867,-144 867,-144 1021,-144 1021,-144 1027,-144 1033,-150 1033,-156 1033,-156 1033,-168 1033,-168 1033,-174 1027,-180 1021,-180"/>
<text text-anchor="middle" x="944" y="-159.5" font-family="sans" font-size="10.00">HISAT_samSub_chrY_bam_males</text>
</g>
<!-- 11&#45;&gt;19 -->
<g id="edge70" class="edge">
<title>11&#45;&gt;19</title>
<path fill="none" stroke="grey" stroke-width="2" d="M540.63,-221.95C622.84,-209.93 754.52,-190.69 844.93,-177.48"/>
<polygon fill="grey" stroke="grey" stroke-width="2" points="845.53,-180.93 854.92,-176.02 844.51,-174 845.53,-180.93"/>
</g>
<!-- 29 -->
<g id="node30" class="node">
<title>29</title>
<path fill="none" stroke="#61d856" stroke-width="2" d="M1326,-108C1326,-108 1166,-108 1166,-108 1160,-108 1154,-102 1154,-96 1154,-96 1154,-84 1154,-84 1154,-78 1160,-72 1166,-72 1166,-72 1326,-72 1326,-72 1332,-72 1338,-78 1338,-84 1338,-84 1338,-96 1338,-96 1338,-102 1332,-108 1326,-108"/>
<text text-anchor="middle" x="1246" y="-87.5" font-family="sans" font-size="10.00">HISAT_feautreCounts_gene_males</text>
</g>
<!-- 11&#45;&gt;29 -->
<g id="edge80" class="edge">
<title>11&#45;&gt;29</title>
<path fill="none" stroke="grey" stroke-width="2" d="M540.53,-233.68C652.02,-232.98 866.38,-225.12 1042,-180 1101.72,-164.66 1166.25,-133.86 1206.39,-112.84"/>
<polygon fill="grey" stroke="grey" stroke-width="2" points="1208.11,-115.89 1215.31,-108.12 1204.84,-109.7 1208.11,-115.89"/>
</g>
<!-- 12&#45;&gt;0 -->
<g id="edge50" class="edge">
<title>12&#45;&gt;0</title>
<path fill="none" stroke="grey" stroke-width="2" d="M1696.96,-215.9C1613.25,-189.28 1478.02,-134.45 1537,-72 1568.05,-39.12 2257.16,-23.16 2426.62,-19.72"/>
<polygon fill="grey" stroke="grey" stroke-width="2" points="2426.86,-23.21 2436.79,-19.52 2426.72,-16.22 2426.86,-23.21"/>
</g>
<!-- 14 -->
<g id="node15" class="node">
<title>14</title>
<path fill="none" stroke="#56b1d8" stroke-width="2" d="M1698,-108C1698,-108 1558,-108 1558,-108 1552,-108 1546,-102 1546,-96 1546,-96 1546,-84 1546,-84 1546,-78 1552,-72 1558,-72 1558,-72 1698,-72 1698,-72 1704,-72 1710,-78 1710,-84 1710,-84 1710,-96 1710,-96 1710,-102 1704,-108 1698,-108"/>
<text text-anchor="middle" x="1628" y="-87.5" font-family="sans" font-size="10.00">HISAT_DEF_index_bam_males</text>
</g>
<!-- 12&#45;&gt;14 -->
<g id="edge65" class="edge">
<title>12&#45;&gt;14</title>
<path fill="none" stroke="grey" stroke-width="2" d="M1738.57,-215.75C1727.93,-205.58 1714.43,-192.33 1703,-180 1683.58,-159.05 1662.74,-134.1 1647.97,-115.96"/>
<polygon fill="grey" stroke="grey" stroke-width="2" points="1650.65,-113.71 1641.64,-108.14 1645.21,-118.11 1650.65,-113.71"/>
</g>
<!-- 16 -->
<g id="node17" class="node">
<title>16</title>
<path fill="none" stroke="#56b9d8" stroke-width="2" d="M1877.5,-108C1877.5,-108 1740.5,-108 1740.5,-108 1734.5,-108 1728.5,-102 1728.5,-96 1728.5,-96 1728.5,-84 1728.5,-84 1728.5,-78 1734.5,-72 1740.5,-72 1740.5,-72 1877.5,-72 1877.5,-72 1883.5,-72 1889.5,-78 1889.5,-84 1889.5,-84 1889.5,-96 1889.5,-96 1889.5,-102 1883.5,-108 1877.5,-108"/>
<text text-anchor="middle" x="1809" y="-87.5" font-family="sans" font-size="10.00">HISAT_DEF_stats_bam_males</text>
</g>
<!-- 12&#45;&gt;16 -->
<g id="edge67" class="edge">
<title>12&#45;&gt;16</title>
<path fill="none" stroke="grey" stroke-width="2" d="M1737.45,-215.94C1719.1,-197.78 1696.48,-168.35 1711,-144 1718.96,-130.64 1731.59,-120.45 1745.16,-112.75"/>
<polygon fill="grey" stroke="grey" stroke-width="2" points="1746.94,-115.77 1754.18,-108.04 1743.7,-109.56 1746.94,-115.77"/>
</g>
<!-- 20 -->
<g id="node21" class="node">
<title>20</title>
<path fill="none" stroke="#c6d856" stroke-width="2" d="M1910,-180C1910,-180 1732,-180 1732,-180 1726,-180 1720,-174 1720,-168 1720,-168 1720,-156 1720,-156 1720,-150 1726,-144 1732,-144 1732,-144 1910,-144 1910,-144 1916,-144 1922,-150 1922,-156 1922,-156 1922,-168 1922,-168 1922,-174 1916,-180 1910,-180"/>
<text text-anchor="middle" x="1821" y="-159.5" font-family="sans" font-size="10.00">HISAT_DEF_samSub_chr8_bam_males</text>
</g>
<!-- 12&#45;&gt;20 -->
<g id="edge71" class="edge">
<title>12&#45;&gt;20</title>
<path fill="none" stroke="grey" stroke-width="2" d="M1772.82,-215.7C1780.57,-207.22 1790.04,-196.86 1798.52,-187.58"/>
<polygon fill="grey" stroke="grey" stroke-width="2" points="1801.2,-189.85 1805.36,-180.1 1796.03,-185.12 1801.2,-189.85"/>
</g>
<!-- 21 -->
<g id="node22" class="node">
<title>21</title>
<path fill="none" stroke="#568ad8" stroke-width="2" d="M2131.5,-180C2131.5,-180 1952.5,-180 1952.5,-180 1946.5,-180 1940.5,-174 1940.5,-168 1940.5,-168 1940.5,-156 1940.5,-156 1940.5,-150 1946.5,-144 1952.5,-144 1952.5,-144 2131.5,-144 2131.5,-144 2137.5,-144 2143.5,-150 2143.5,-156 2143.5,-156 2143.5,-168 2143.5,-168 2143.5,-174 2137.5,-180 2131.5,-180"/>
<text text-anchor="middle" x="2042" y="-159.5" font-family="sans" font-size="10.00">HISAT_DEF_samSub_chrX_bam_males</text>
</g>
<!-- 12&#45;&gt;21 -->
<g id="edge72" class="edge">
<title>12&#45;&gt;21</title>
<path fill="none" stroke="grey" stroke-width="2" d="M1826.35,-215.97C1867.47,-205.87 1919.74,-193.03 1962.52,-182.52"/>
<polygon fill="grey" stroke="grey" stroke-width="2" points="1963.46,-185.9 1972.33,-180.11 1961.79,-179.1 1963.46,-185.9"/>
</g>
<!-- 22 -->
<g id="node23" class="node">
<title>22</title>
<path fill="none" stroke="#56d863" stroke-width="2" d="M2352,-180C2352,-180 2174,-180 2174,-180 2168,-180 2162,-174 2162,-168 2162,-168 2162,-156 2162,-156 2162,-150 2168,-144 2174,-144 2174,-144 2352,-144 2352,-144 2358,-144 2364,-150 2364,-156 2364,-156 2364,-168 2364,-168 2364,-174 2358,-180 2352,-180"/>
<text text-anchor="middle" x="2263" y="-159.5" font-family="sans" font-size="10.00">HISAT_DEF_samSub_chrY_bam_males</text>
</g>
<!-- 12&#45;&gt;22 -->
<g id="edge73" class="edge">
<title>12&#45;&gt;22</title>
<path fill="none" stroke="grey" stroke-width="2" d="M1844.53,-221.73C1924.62,-211.31 2046.36,-195.18 2152,-180 2152.1,-179.99 2152.21,-179.97 2152.31,-179.96"/>
<polygon fill="grey" stroke="grey" stroke-width="2" points="2152.59,-183.45 2161.98,-178.55 2151.58,-176.52 2152.59,-183.45"/>
</g>
<!-- 30 -->
<g id="node31" class="node">
<title>30</title>
<path fill="none" stroke="#56d0d8" stroke-width="2" d="M2602,-180C2602,-180 2394,-180 2394,-180 2388,-180 2382,-174 2382,-168 2382,-168 2382,-156 2382,-156 2382,-150 2388,-144 2394,-144 2394,-144 2602,-144 2602,-144 2608,-144 2614,-150 2614,-156 2614,-156 2614,-168 2614,-168 2614,-174 2608,-180 2602,-180"/>
<text text-anchor="middle" x="2498" y="-159.5" font-family="sans" font-size="10.00">HISAT_DEF_DEF_feautreCounts_gene_males</text>
</g>
<!-- 12&#45;&gt;30 -->
<g id="edge81" class="edge">
<title>12&#45;&gt;30</title>
<path fill="none" stroke="grey" stroke-width="2" d="M1844.61,-226.83C1962.13,-218.25 2177.58,-201.43 2371.81,-180.1"/>
<polygon fill="grey" stroke="grey" stroke-width="2" points="2372.36,-183.56 2381.92,-178.99 2371.59,-176.6 2372.36,-183.56"/>
</g>
<!-- 13&#45;&gt;0 -->
<g id="edge33" class="edge">
<title>13&#45;&gt;0</title>
<path fill="none" stroke="grey" stroke-width="2" d="M320.1,-73.2C323.1,-72.75 326.07,-72.35 329,-72 758.45,-20.92 2178.1,-18.92 2426.69,-18.97"/>
<polygon fill="grey" stroke="grey" stroke-width="2" points="2426.99,-22.47 2436.99,-18.97 2426.99,-15.47 2426.99,-22.47"/>
</g>
<!-- 14&#45;&gt;0 -->
<g id="edge18" class="edge">
<title>14&#45;&gt;0</title>
<path fill="none" stroke="grey" stroke-width="2" d="M1710.27,-73.2C1713.21,-72.77 1716.13,-72.37 1719,-72 1989.09,-37.28 2317.4,-23.86 2426.65,-20.16"/>
<polygon fill="grey" stroke="grey" stroke-width="2" points="2426.95,-23.65 2436.83,-19.82 2426.72,-16.65 2426.95,-23.65"/>
</g>
<!-- 15&#45;&gt;0 -->
<g id="edge25" class="edge">
<title>15&#45;&gt;0</title>
<path fill="none" stroke="grey" stroke-width="2" d="M475.69,-73.96C480.52,-73.21 485.32,-72.54 490,-72 885.6,-26.53 2188.72,-19.94 2426.56,-19.11"/>
<polygon fill="grey" stroke="grey" stroke-width="2" points="2426.78,-22.61 2436.77,-19.08 2426.76,-15.61 2426.78,-22.61"/>
</g>
<!-- 16&#45;&gt;0 -->
<g id="edge17" class="edge">
<title>16&#45;&gt;0</title>
<path fill="none" stroke="grey" stroke-width="2" d="M1889.52,-74.12C1894.41,-73.36 1899.27,-72.65 1904,-72 2100.15,-45.21 2336.81,-27.62 2426.82,-21.45"/>
<polygon fill="grey" stroke="grey" stroke-width="2" points="2427.07,-24.94 2436.81,-20.77 2426.6,-17.96 2427.07,-24.94"/>
</g>
<!-- 17&#45;&gt;0 -->
<g id="edge43" class="edge">
<title>17&#45;&gt;0</title>
<path fill="none" stroke="grey" stroke-width="2" d="M517.53,-143.99C511.13,-123.9 504.68,-90.83 523,-72 557.47,-36.57 2159.13,-21.57 2426.38,-19.31"/>
<polygon fill="grey" stroke="grey" stroke-width="2" points="2426.74,-22.8 2436.71,-19.22 2426.69,-15.8 2426.74,-22.8"/>
</g>
<!-- 23 -->
<g id="node24" class="node">
<title>23</title>
<path fill="none" stroke="#56b1d8" stroke-width="2" d="M683.5,-108C683.5,-108 544.5,-108 544.5,-108 538.5,-108 532.5,-102 532.5,-96 532.5,-96 532.5,-84 532.5,-84 532.5,-78 538.5,-72 544.5,-72 544.5,-72 683.5,-72 683.5,-72 689.5,-72 695.5,-78 695.5,-84 695.5,-84 695.5,-96 695.5,-96 695.5,-102 689.5,-108 683.5,-108"/>
<text text-anchor="middle" x="614" y="-87.5" font-family="sans" font-size="10.00">HISAT_stats_chr8_bam_males</text>
</g>
<!-- 17&#45;&gt;23 -->
<g id="edge74" class="edge">
<title>17&#45;&gt;23</title>
<path fill="none" stroke="grey" stroke-width="2" d="M546.25,-143.7C557.58,-134.88 571.53,-124.03 583.82,-114.47"/>
<polygon fill="grey" stroke="grey" stroke-width="2" points="586.26,-117.01 592.01,-108.1 581.97,-111.48 586.26,-117.01"/>
</g>
<!-- 18&#45;&gt;0 -->
<g id="edge9" class="edge">
<title>18&#45;&gt;0</title>
<path fill="none" stroke="grey" stroke-width="2" d="M722.03,-143.81C720.75,-123.21 722.26,-89.31 743,-72 809.84,-16.2 2181.08,-18.07 2426.55,-18.86"/>
<polygon fill="grey" stroke="grey" stroke-width="2" points="2426.73,-22.36 2436.75,-18.89 2426.76,-15.36 2426.73,-22.36"/>
</g>
<!-- 25 -->
<g id="node26" class="node">
<title>25</title>
<path fill="none" stroke="#78d856" stroke-width="2" d="M904,-108C904,-108 764,-108 764,-108 758,-108 752,-102 752,-96 752,-96 752,-84 752,-84 752,-78 758,-72 764,-72 764,-72 904,-72 904,-72 910,-72 916,-78 916,-84 916,-84 916,-96 916,-96 916,-102 910,-108 904,-108"/>
<text text-anchor="middle" x="834" y="-87.5" font-family="sans" font-size="10.00">HISAT_stats_chrX_bam_males</text>
</g>
<!-- 18&#45;&gt;25 -->
<g id="edge76" class="edge">
<title>18&#45;&gt;25</title>
<path fill="none" stroke="grey" stroke-width="2" d="M750.91,-143.88C765.16,-134.81 782.85,-123.55 798.24,-113.76"/>
<polygon fill="grey" stroke="grey" stroke-width="2" points="800.43,-116.51 806.99,-108.19 796.67,-110.61 800.43,-116.51"/>
</g>
<!-- 19&#45;&gt;0 -->
<g id="edge29" class="edge">
<title>19&#45;&gt;0</title>
<path fill="none" stroke="grey" stroke-width="2" d="M942.05,-143.82C940.78,-123.24 942.3,-89.36 963,-72 1020.8,-23.52 2201.01,-19.38 2426.83,-19.03"/>
<polygon fill="grey" stroke="grey" stroke-width="2" points="2426.86,-22.53 2436.86,-19.02 2426.85,-15.53 2426.86,-22.53"/>
</g>
<!-- 27 -->
<g id="node28" class="node">
<title>27</title>
<path fill="none" stroke="#d8c356" stroke-width="2" d="M1123.5,-108C1123.5,-108 984.5,-108 984.5,-108 978.5,-108 972.5,-102 972.5,-96 972.5,-96 972.5,-84 972.5,-84 972.5,-78 978.5,-72 984.5,-72 984.5,-72 1123.5,-72 1123.5,-72 1129.5,-72 1135.5,-78 1135.5,-84 1135.5,-84 1135.5,-96 1135.5,-96 1135.5,-102 1129.5,-108 1123.5,-108"/>
<text text-anchor="middle" x="1054" y="-87.5" font-family="sans" font-size="10.00">HISAT_stats_chrY_bam_males</text>
</g>
<!-- 19&#45;&gt;27 -->
<g id="edge78" class="edge">
<title>19&#45;&gt;27</title>
<path fill="none" stroke="grey" stroke-width="2" d="M970.91,-143.88C985.16,-134.81 1002.85,-123.55 1018.24,-113.76"/>
<polygon fill="grey" stroke="grey" stroke-width="2" points="1020.43,-116.51 1026.99,-108.19 1016.67,-110.61 1020.43,-116.51"/>
</g>
<!-- 20&#45;&gt;0 -->
<g id="edge22" class="edge">
<title>20&#45;&gt;0</title>
<path fill="none" stroke="grey" stroke-width="2" d="M1848.11,-143.83C1863.21,-133.91 1882.11,-120.87 1898,-108 1916.08,-93.36 1914.85,-81.68 1936,-72 2023.77,-31.83 2321.64,-21.91 2426.83,-19.63"/>
<polygon fill="grey" stroke="grey" stroke-width="2" points="2427.05,-23.13 2436.97,-19.43 2426.9,-16.13 2427.05,-23.13"/>
</g>
<!-- 24 -->
<g id="node25" class="node">
<title>24</title>
<path fill="none" stroke="#56c1d8" stroke-width="2" d="M2120.5,-108C2120.5,-108 1957.5,-108 1957.5,-108 1951.5,-108 1945.5,-102 1945.5,-96 1945.5,-96 1945.5,-84 1945.5,-84 1945.5,-78 1951.5,-72 1957.5,-72 1957.5,-72 2120.5,-72 2120.5,-72 2126.5,-72 2132.5,-78 2132.5,-84 2132.5,-84 2132.5,-96 2132.5,-96 2132.5,-102 2126.5,-108 2120.5,-108"/>
<text text-anchor="middle" x="2039" y="-87.5" font-family="sans" font-size="10.00">HISAT_DEF_stats_chr8_bam_males</text>
</g>
<!-- 20&#45;&gt;24 -->
<g id="edge75" class="edge">
<title>20&#45;&gt;24</title>
<path fill="none" stroke="grey" stroke-width="2" d="M1874.05,-143.97C1904.77,-134.1 1943.64,-121.62 1975.92,-111.25"/>
<polygon fill="grey" stroke="grey" stroke-width="2" points="1977.26,-114.5 1985.71,-108.11 1975.12,-107.84 1977.26,-114.5"/>
</g>
<!-- 21&#45;&gt;0 -->
<g id="edge34" class="edge">
<title>21&#45;&gt;0</title>
<path fill="none" stroke="grey" stroke-width="2" d="M2079.6,-143.84C2098.71,-134.4 2121.87,-121.8 2141,-108 2159.87,-94.39 2158.27,-82.56 2179,-72 2260.52,-30.48 2369.97,-21.2 2426.58,-19.31"/>
<polygon fill="grey" stroke="grey" stroke-width="2" points="2426.95,-22.8 2436.85,-19.03 2426.76,-15.8 2426.95,-22.8"/>
</g>
<!-- 26 -->
<g id="node27" class="node">
<title>26</title>
<path fill="none" stroke="#56a9d8" stroke-width="2" d="M2364,-108C2364,-108 2200,-108 2200,-108 2194,-108 2188,-102 2188,-96 2188,-96 2188,-84 2188,-84 2188,-78 2194,-72 2200,-72 2200,-72 2364,-72 2364,-72 2370,-72 2376,-78 2376,-84 2376,-84 2376,-96 2376,-96 2376,-102 2370,-108 2364,-108"/>
<text text-anchor="middle" x="2282" y="-87.5" font-family="sans" font-size="10.00">HISAT_DEF_stats_chrX_bam_males</text>
</g>
<!-- 21&#45;&gt;26 -->
<g id="edge77" class="edge">
<title>21&#45;&gt;26</title>
<path fill="none" stroke="grey" stroke-width="2" d="M2100.4,-143.97C2134.52,-134.01 2177.75,-121.41 2213.47,-110.99"/>
<polygon fill="grey" stroke="grey" stroke-width="2" points="2214.71,-114.27 2223.33,-108.11 2212.75,-107.55 2214.71,-114.27"/>
</g>
<!-- 22&#45;&gt;0 -->
<g id="edge10" class="edge">
<title>22&#45;&gt;0</title>
<path fill="none" stroke="grey" stroke-width="2" d="M2315.5,-143.97C2338.09,-135.22 2364.06,-123.18 2385,-108 2398.18,-98.44 2425.09,-66.91 2443.81,-44.09"/>
<polygon fill="grey" stroke="grey" stroke-width="2" points="2446.69,-46.09 2450.3,-36.13 2441.27,-41.67 2446.69,-46.09"/>
</g>
<!-- 28 -->
<g id="node29" class="node">
<title>28</title>
<path fill="none" stroke="#d85e56" stroke-width="2" d="M2606.5,-108C2606.5,-108 2443.5,-108 2443.5,-108 2437.5,-108 2431.5,-102 2431.5,-96 2431.5,-96 2431.5,-84 2431.5,-84 2431.5,-78 2437.5,-72 2443.5,-72 2443.5,-72 2606.5,-72 2606.5,-72 2612.5,-72 2618.5,-78 2618.5,-84 2618.5,-84 2618.5,-96 2618.5,-96 2618.5,-102 2612.5,-108 2606.5,-108"/>
<text text-anchor="middle" x="2525" y="-87.5" font-family="sans" font-size="10.00">HISAT_DEF_stats_chrY_bam_males</text>
</g>
<!-- 22&#45;&gt;28 -->
<g id="edge79" class="edge">
<title>22&#45;&gt;28</title>
<path fill="none" stroke="grey" stroke-width="2" d="M2326.76,-143.97C2364.32,-133.93 2412,-121.19 2451.19,-110.72"/>
<polygon fill="grey" stroke="grey" stroke-width="2" points="2452.2,-114.07 2460.96,-108.11 2450.39,-107.31 2452.2,-114.07"/>
</g>
<!-- 23&#45;&gt;0 -->
<g id="edge19" class="edge">
<title>23&#45;&gt;0</title>
<path fill="none" stroke="grey" stroke-width="2" d="M695.59,-73.72C700.45,-73.07 705.29,-72.49 710,-72 1059.78,-35.94 2204.97,-21.82 2426.65,-19.39"/>
<polygon fill="grey" stroke="grey" stroke-width="2" points="2426.83,-22.89 2436.79,-19.28 2426.76,-15.89 2426.83,-22.89"/>
</g>
<!-- 24&#45;&gt;0 -->
<g id="edge15" class="edge">
<title>24&#45;&gt;0</title>
<path fill="none" stroke="grey" stroke-width="2" d="M2132.53,-73.59C2224.9,-58.38 2361.53,-35.88 2426.73,-25.14"/>
<polygon fill="grey" stroke="grey" stroke-width="2" points="2427.64,-28.54 2436.94,-23.46 2426.5,-21.63 2427.64,-28.54"/>
</g>
<!-- 25&#45;&gt;0 -->
<g id="edge49" class="edge">
<title>25&#45;&gt;0</title>
<path fill="none" stroke="grey" stroke-width="2" d="M916.11,-73.68C920.8,-73.05 925.46,-72.48 930,-72 1233.48,-40.05 2221.73,-22.85 2426.61,-19.58"/>
<polygon fill="grey" stroke="grey" stroke-width="2" points="2426.9,-23.07 2436.84,-19.41 2426.79,-16.07 2426.9,-23.07"/>
</g>
<!-- 26&#45;&gt;0 -->
<g id="edge20" class="edge">
<title>26&#45;&gt;0</title>
<path fill="none" stroke="grey" stroke-width="2" d="M2326.52,-71.88C2357.53,-59.95 2398.39,-44.23 2427.48,-33.04"/>
<polygon fill="grey" stroke="grey" stroke-width="2" points="2428.79,-36.29 2436.87,-29.43 2426.28,-29.76 2428.79,-36.29"/>
</g>
<!-- 27&#45;&gt;0 -->
<g id="edge11" class="edge">
<title>27&#45;&gt;0</title>
<path fill="none" stroke="grey" stroke-width="2" d="M1135.77,-73.15C1138.88,-72.73 1141.97,-72.34 1145,-72 1403.3,-42.84 2239.52,-23.74 2426.63,-19.77"/>
<polygon fill="grey" stroke="grey" stroke-width="2" points="2426.86,-23.27 2436.78,-19.56 2426.71,-16.27 2426.86,-23.27"/>
</g>
<!-- 28&#45;&gt;0 -->
<g id="edge12" class="edge">
<title>28&#45;&gt;0</title>
<path fill="none" stroke="grey" stroke-width="2" d="M2509.92,-71.7C2502.61,-63.3 2493.69,-53.07 2485.66,-43.86"/>
<polygon fill="grey" stroke="grey" stroke-width="2" points="2488.11,-41.34 2478.91,-36.1 2482.84,-45.94 2488.11,-41.34"/>
</g>
<!-- 29&#45;&gt;0 -->
<g id="edge5" class="edge">
<title>29&#45;&gt;0</title>
<path fill="none" stroke="grey" stroke-width="2" d="M1338.13,-73.59C1342.81,-73.01 1347.46,-72.47 1352,-72 1772.16,-28.43 2285.41,-20.63 2426.56,-19.27"/>
<polygon fill="grey" stroke="grey" stroke-width="2" points="2426.85,-22.77 2436.82,-19.18 2426.79,-15.77 2426.85,-22.77"/>
</g>
<!-- 30&#45;&gt;0 -->
<g id="edge8" class="edge">
<title>30&#45;&gt;0</title>
<path fill="none" stroke="grey" stroke-width="2" d="M2579.78,-143.97C2598.32,-136.13 2615.81,-124.69 2627,-108 2635.91,-94.71 2636.4,-84.95 2627,-72 2598.47,-32.72 2540.09,-21.98 2501.51,-19.36"/>
<polygon fill="grey" stroke="grey" stroke-width="2" points="2501.36,-15.84 2491.19,-18.82 2500.99,-22.83 2501.36,-15.84"/>
</g>
<!-- 31&#45;&gt;0 -->
<g id="edge37" class="edge">
<title>31&#45;&gt;0</title>
<path fill="none" stroke="grey" stroke-width="2" d="M2642,-431.95C2642,-405.29 2642,-352.11 2642,-307 2642,-307 2642,-307 2642,-233 2642,-161.43 2687.91,-129.28 2645,-72 2627.76,-48.99 2549,-32.61 2501.23,-24.59"/>
<polygon fill="grey" stroke="grey" stroke-width="2" points="2501.69,-21.12 2491.26,-22.96 2500.56,-28.03 2501.69,-21.12"/>
</g>
<!-- 33 -->
<g id="node34" class="node">
<title>33</title>
<path fill="none" stroke="#d8cb56" stroke-width="2" d="M2786,-396C2786,-396 2682,-396 2682,-396 2676,-396 2670,-390 2670,-384 2670,-384 2670,-372 2670,-372 2670,-366 2676,-360 2682,-360 2682,-360 2786,-360 2786,-360 2792,-360 2798,-366 2798,-372 2798,-372 2798,-384 2798,-384 2798,-390 2792,-396 2786,-396"/>
<text text-anchor="middle" x="2734" y="-375.5" font-family="sans" font-size="10.00">STAR_bam_sort_males</text>
</g>
<!-- 31&#45;&gt;33 -->
<g id="edge84" class="edge">
<title>31&#45;&gt;33</title>
<path fill="none" stroke="grey" stroke-width="2" d="M2664.74,-431.7C2676.44,-422.8 2690.86,-411.82 2703.51,-402.2"/>
<polygon fill="grey" stroke="grey" stroke-width="2" points="2705.68,-404.94 2711.52,-396.1 2701.44,-399.37 2705.68,-404.94"/>
</g>
<!-- 32&#45;&gt;0 -->
<g id="edge16" class="edge">
<title>32&#45;&gt;0</title>
<path fill="none" stroke="grey" stroke-width="2" d="M3724,-431.95C3724,-405.29 3724,-352.11 3724,-307 3724,-307 3724,-307 3724,-161 3724,-111.83 3906.7,-158.18 3541,-72 3337.29,-24 2667.85,-19.42 2501.62,-19.03"/>
<polygon fill="grey" stroke="grey" stroke-width="2" points="2501.41,-15.52 2491.41,-19.01 2501.4,-22.52 2501.41,-15.52"/>
</g>
<!-- 34 -->
<g id="node35" class="node">
<title>34</title>
<path fill="none" stroke="#56d87b" stroke-width="2" d="M3892,-396C3892,-396 3764,-396 3764,-396 3758,-396 3752,-390 3752,-384 3752,-384 3752,-372 3752,-372 3752,-366 3758,-360 3764,-360 3764,-360 3892,-360 3892,-360 3898,-360 3904,-366 3904,-372 3904,-372 3904,-384 3904,-384 3904,-390 3898,-396 3892,-396"/>
<text text-anchor="middle" x="3828" y="-375.5" font-family="sans" font-size="10.00">STAR_DEF_bam_sort_males</text>
</g>
<!-- 32&#45;&gt;34 -->
<g id="edge85" class="edge">
<title>32&#45;&gt;34</title>
<path fill="none" stroke="grey" stroke-width="2" d="M3749.44,-431.88C3762.79,-422.89 3779.32,-411.76 3793.78,-402.03"/>
<polygon fill="grey" stroke="grey" stroke-width="2" points="3796.12,-404.68 3802.46,-396.19 3792.21,-398.87 3796.12,-404.68"/>
</g>
<!-- 33&#45;&gt;0 -->
<g id="edge13" class="edge">
<title>33&#45;&gt;0</title>
<path fill="none" stroke="grey" stroke-width="2" d="M2718.84,-359.7C2711.3,-349.93 2702.96,-337.09 2699,-324 2666.57,-216.8 2768.08,-159.37 2698,-72 2673.72,-41.73 2560.84,-27.45 2501.18,-21.91"/>
<polygon fill="grey" stroke="grey" stroke-width="2" points="2501.31,-18.41 2491.04,-21.01 2500.69,-25.39 2501.31,-18.41"/>
</g>
<!-- 35 -->
<g id="node36" class="node">
<title>35</title>
<path fill="none" stroke="#88d856" stroke-width="2" d="M2827.5,-324C2827.5,-324 2720.5,-324 2720.5,-324 2714.5,-324 2708.5,-318 2708.5,-312 2708.5,-312 2708.5,-300 2708.5,-300 2708.5,-294 2714.5,-288 2720.5,-288 2720.5,-288 2827.5,-288 2827.5,-288 2833.5,-288 2839.5,-294 2839.5,-300 2839.5,-300 2839.5,-312 2839.5,-312 2839.5,-318 2833.5,-324 2827.5,-324"/>
<text text-anchor="middle" x="2774" y="-303.5" font-family="sans" font-size="10.00">STAR_MarkDups_males</text>
</g>
<!-- 33&#45;&gt;35 -->
<g id="edge86" class="edge">
<title>33&#45;&gt;35</title>
<path fill="none" stroke="grey" stroke-width="2" d="M2743.89,-359.7C2748.49,-351.64 2754.06,-341.89 2759.15,-332.98"/>
<polygon fill="grey" stroke="grey" stroke-width="2" points="2762.3,-334.52 2764.23,-324.1 2756.23,-331.05 2762.3,-334.52"/>
</g>
<!-- 34&#45;&gt;0 -->
<g id="edge23" class="edge">
<title>34&#45;&gt;0</title>
<path fill="none" stroke="grey" stroke-width="2" d="M3808.41,-359.65C3798.76,-350.06 3787.77,-337.39 3781,-324 3762.76,-287.9 3762,-275.45 3762,-235 3762,-235 3762,-235 3762,-161 3762,-120.03 3770,-97.58 3738,-72 3688.48,-32.4 2706.84,-21.23 2501.47,-19.32"/>
<polygon fill="grey" stroke="grey" stroke-width="2" points="2501.23,-15.82 2491.2,-19.23 2501.17,-22.82 2501.23,-15.82"/>
</g>
<!-- 36 -->
<g id="node37" class="node">
<title>36</title>
<path fill="none" stroke="#c6d856" stroke-width="2" d="M3933.5,-324C3933.5,-324 3802.5,-324 3802.5,-324 3796.5,-324 3790.5,-318 3790.5,-312 3790.5,-312 3790.5,-300 3790.5,-300 3790.5,-294 3796.5,-288 3802.5,-288 3802.5,-288 3933.5,-288 3933.5,-288 3939.5,-288 3945.5,-294 3945.5,-300 3945.5,-300 3945.5,-312 3945.5,-312 3945.5,-318 3939.5,-324 3933.5,-324"/>
<text text-anchor="middle" x="3868" y="-303.5" font-family="sans" font-size="10.00">STAR_DEF_MarkDups_males</text>
</g>
<!-- 34&#45;&gt;36 -->
<g id="edge87" class="edge">
<title>34&#45;&gt;36</title>
<path fill="none" stroke="grey" stroke-width="2" d="M3837.89,-359.7C3842.49,-351.64 3848.06,-341.89 3853.15,-332.98"/>
<polygon fill="grey" stroke="grey" stroke-width="2" points="3856.3,-334.52 3858.23,-324.1 3850.23,-331.05 3856.3,-334.52"/>
</g>
<!-- 35&#45;&gt;0 -->
<g id="edge40" class="edge">
<title>35&#45;&gt;0</title>
<path fill="none" stroke="grey" stroke-width="2" d="M2772.32,-287.74C2767.18,-236.45 2751.09,-87.56 2736,-72 2703.97,-38.97 2567.97,-25.71 2501.24,-21.12"/>
<polygon fill="grey" stroke="grey" stroke-width="2" points="2501.35,-17.62 2491.15,-20.45 2500.89,-24.6 2501.35,-17.62"/>
</g>
<!-- 37 -->
<g id="node38" class="node">
<title>37</title>
<path fill="none" stroke="#d89c56" stroke-width="2" d="M3086.5,-252C3086.5,-252 2963.5,-252 2963.5,-252 2957.5,-252 2951.5,-246 2951.5,-240 2951.5,-240 2951.5,-228 2951.5,-228 2951.5,-222 2957.5,-216 2963.5,-216 2963.5,-216 3086.5,-216 3086.5,-216 3092.5,-216 3098.5,-222 3098.5,-228 3098.5,-228 3098.5,-240 3098.5,-240 3098.5,-246 3092.5,-252 3086.5,-252"/>
<text text-anchor="middle" x="3025" y="-231.5" font-family="sans" font-size="10.00">STAR_AddReadGrps_males</text>
</g>
<!-- 35&#45;&gt;37 -->
<g id="edge88" class="edge">
<title>35&#45;&gt;37</title>
<path fill="none" stroke="grey" stroke-width="2" d="M2835.08,-287.97C2870.91,-277.97 2916.36,-265.3 2953.81,-254.85"/>
<polygon fill="grey" stroke="grey" stroke-width="2" points="2954.95,-258.17 2963.65,-252.11 2953.07,-251.43 2954.95,-258.17"/>
</g>
<!-- 36&#45;&gt;0 -->
<g id="edge26" class="edge">
<title>36&#45;&gt;0</title>
<path fill="none" stroke="grey" stroke-width="2" d="M3863.76,-287.7C3851.29,-238.29 3813.23,-98.44 3776,-72 3722.65,-34.11 2709.36,-21.55 2501.19,-19.37"/>
<polygon fill="grey" stroke="grey" stroke-width="2" points="2501.11,-15.86 2491.07,-19.26 2501.04,-22.86 2501.11,-15.86"/>
</g>
<!-- 38 -->
<g id="node39" class="node">
<title>38</title>
<path fill="none" stroke="#61d856" stroke-width="2" d="M4216.5,-252C4216.5,-252 4069.5,-252 4069.5,-252 4063.5,-252 4057.5,-246 4057.5,-240 4057.5,-240 4057.5,-228 4057.5,-228 4057.5,-222 4063.5,-216 4069.5,-216 4069.5,-216 4216.5,-216 4216.5,-216 4222.5,-216 4228.5,-222 4228.5,-228 4228.5,-228 4228.5,-240 4228.5,-240 4228.5,-246 4222.5,-252 4216.5,-252"/>
<text text-anchor="middle" x="4143" y="-231.5" font-family="sans" font-size="10.00">STAR_DEF_AddReadGrps_males</text>
</g>
<!-- 36&#45;&gt;38 -->
<g id="edge89" class="edge">
<title>36&#45;&gt;38</title>
<path fill="none" stroke="grey" stroke-width="2" d="M3934.92,-287.97C3974.51,-277.89 4024.82,-265.08 4066.05,-254.59"/>
<polygon fill="grey" stroke="grey" stroke-width="2" points="4066.95,-257.97 4075.78,-252.11 4065.22,-251.19 4066.95,-257.97"/>
</g>
<!-- 37&#45;&gt;0 -->
<g id="edge44" class="edge">
<title>37&#45;&gt;0</title>
<path fill="none" stroke="grey" stroke-width="2" d="M2951.33,-227.42C2885.8,-220.74 2797.02,-206.92 2775,-180 2744.61,-142.84 2805.12,-108.55 2774,-72 2739.33,-31.29 2576.24,-21.85 2501.54,-19.66"/>
<polygon fill="grey" stroke="grey" stroke-width="2" points="2501.27,-16.15 2491.18,-19.39 2501.09,-23.15 2501.27,-16.15"/>
</g>
<!-- 39 -->
<g id="node40" class="node">
<title>39</title>
<path fill="none" stroke="#ced856" stroke-width="2" d="M2908,-180C2908,-180 2796,-180 2796,-180 2790,-180 2784,-174 2784,-168 2784,-168 2784,-156 2784,-156 2784,-150 2790,-144 2796,-144 2796,-144 2908,-144 2908,-144 2914,-144 2920,-150 2920,-156 2920,-156 2920,-168 2920,-168 2920,-174 2914,-180 2908,-180"/>
<text text-anchor="middle" x="2852" y="-159.5" font-family="sans" font-size="10.00">STAR_index_bam_males</text>
</g>
<!-- 37&#45;&gt;39 -->
<g id="edge90" class="edge">
<title>37&#45;&gt;39</title>
<path fill="none" stroke="grey" stroke-width="2" d="M2982.68,-215.88C2958.82,-206.22 2928.83,-194.09 2903.6,-183.88"/>
<polygon fill="grey" stroke="grey" stroke-width="2" points="2904.77,-180.57 2894.18,-180.07 2902.14,-187.06 2904.77,-180.57"/>
</g>
<!-- 41 -->
<g id="node42" class="node">
<title>41</title>
<path fill="none" stroke="#56d8c9" stroke-width="2" d="M3100,-180C3100,-180 2950,-180 2950,-180 2944,-180 2938,-174 2938,-168 2938,-168 2938,-156 2938,-156 2938,-150 2944,-144 2950,-144 2950,-144 3100,-144 3100,-144 3106,-144 3112,-150 3112,-156 3112,-156 3112,-168 3112,-168 3112,-174 3106,-180 3100,-180"/>
<text text-anchor="middle" x="3025" y="-159.5" font-family="sans" font-size="10.00">STAR_samSub_chr8_bam_males</text>
</g>
<!-- 37&#45;&gt;41 -->
<g id="edge92" class="edge">
<title>37&#45;&gt;41</title>
<path fill="none" stroke="grey" stroke-width="2" d="M3025,-215.7C3025,-207.98 3025,-198.71 3025,-190.11"/>
<polygon fill="grey" stroke="grey" stroke-width="2" points="3028.5,-190.1 3025,-180.1 3021.5,-190.1 3028.5,-190.1"/>
</g>
<!-- 42 -->
<g id="node43" class="node">
<title>42</title>
<path fill="none" stroke="#56d8a9" stroke-width="2" d="M3293.5,-180C3293.5,-180 3142.5,-180 3142.5,-180 3136.5,-180 3130.5,-174 3130.5,-168 3130.5,-168 3130.5,-156 3130.5,-156 3130.5,-150 3136.5,-144 3142.5,-144 3142.5,-144 3293.5,-144 3293.5,-144 3299.5,-144 3305.5,-150 3305.5,-156 3305.5,-156 3305.5,-168 3305.5,-168 3305.5,-174 3299.5,-180 3293.5,-180"/>
<text text-anchor="middle" x="3218" y="-159.5" font-family="sans" font-size="10.00">STAR_samSub_chrX_bam_males</text>
</g>
<!-- 37&#45;&gt;42 -->
<g id="edge93" class="edge">
<title>37&#45;&gt;42</title>
<path fill="none" stroke="grey" stroke-width="2" d="M3072.21,-215.88C3099.07,-206.14 3132.88,-193.87 3161.18,-183.61"/>
<polygon fill="grey" stroke="grey" stroke-width="2" points="3162.73,-186.77 3170.94,-180.07 3160.35,-180.19 3162.73,-186.77"/>
</g>
<!-- 43 -->
<g id="node44" class="node">
<title>43</title>
<path fill="none" stroke="#d8a456" stroke-width="2" d="M3486,-180C3486,-180 3336,-180 3336,-180 3330,-180 3324,-174 3324,-168 3324,-168 3324,-156 3324,-156 3324,-150 3330,-144 3336,-144 3336,-144 3486,-144 3486,-144 3492,-144 3498,-150 3498,-156 3498,-156 3498,-168 3498,-168 3498,-174 3492,-180 3486,-180"/>
<text text-anchor="middle" x="3411" y="-159.5" font-family="sans" font-size="10.00">STAR_samSub_chrY_bam_males</text>
</g>
<!-- 37&#45;&gt;43 -->
<g id="edge94" class="edge">
<title>37&#45;&gt;43</title>
<path fill="none" stroke="grey" stroke-width="2" d="M3098.51,-219.67C3159.58,-208.59 3246.95,-192.75 3313.79,-180.63"/>
<polygon fill="grey" stroke="grey" stroke-width="2" points="3314.7,-184.02 3323.92,-178.79 3313.45,-177.13 3314.7,-184.02"/>
</g>
<!-- 53 -->
<g id="node54" class="node">
<title>53</title>
<path fill="none" stroke="#59d856" stroke-width="2" d="M3684,-180C3684,-180 3528,-180 3528,-180 3522,-180 3516,-174 3516,-168 3516,-168 3516,-156 3516,-156 3516,-150 3522,-144 3528,-144 3528,-144 3684,-144 3684,-144 3690,-144 3696,-150 3696,-156 3696,-156 3696,-168 3696,-168 3696,-174 3690,-180 3684,-180"/>
<text text-anchor="middle" x="3606" y="-159.5" font-family="sans" font-size="10.00">STAR_feautreCounts_gene_males</text>
</g>
<!-- 37&#45;&gt;53 -->
<g id="edge104" class="edge">
<title>37&#45;&gt;53</title>
<path fill="none" stroke="grey" stroke-width="2" d="M3098.67,-226.3C3191.24,-217.56 3355.21,-201.06 3505.58,-180.15"/>
<polygon fill="grey" stroke="grey" stroke-width="2" points="3506.51,-183.56 3515.93,-178.7 3505.54,-176.63 3506.51,-183.56"/>
</g>
<!-- 38&#45;&gt;0 -->
<g id="edge2" class="edge">
<title>38&#45;&gt;0</title>
<path fill="none" stroke="grey" stroke-width="2" d="M4057.28,-226.22C3984.44,-218.84 3887.05,-204.68 3857,-180 3817.07,-147.21 3856.18,-101.83 3814,-72 3758.94,-33.06 2713.18,-21.31 2501.26,-19.32"/>
<polygon fill="grey" stroke="grey" stroke-width="2" points="2501.29,-15.82 2491.25,-19.23 2501.22,-22.82 2501.29,-15.82"/>
</g>
<!-- 40 -->
<g id="node41" class="node">
<title>40</title>
<path fill="none" stroke="#9fd856" stroke-width="2" d="M4014,-180C4014,-180 3878,-180 3878,-180 3872,-180 3866,-174 3866,-168 3866,-168 3866,-156 3866,-156 3866,-150 3872,-144 3878,-144 3878,-144 4014,-144 4014,-144 4020,-144 4026,-150 4026,-156 4026,-156 4026,-168 4026,-168 4026,-174 4020,-180 4014,-180"/>
<text text-anchor="middle" x="3946" y="-159.5" font-family="sans" font-size="10.00">STAR_DEF_index_bam_males</text>
</g>
<!-- 38&#45;&gt;40 -->
<g id="edge91" class="edge">
<title>38&#45;&gt;40</title>
<path fill="none" stroke="grey" stroke-width="2" d="M4095.06,-215.97C4067.53,-206.19 4032.78,-193.84 4003.76,-183.52"/>
<polygon fill="grey" stroke="grey" stroke-width="2" points="4004.75,-180.16 3994.15,-180.11 4002.41,-186.76 4004.75,-180.16"/>
</g>
<!-- 44 -->
<g id="node45" class="node">
<title>44</title>
<path fill="none" stroke="#56d8d8" stroke-width="2" d="M4230,-180C4230,-180 4056,-180 4056,-180 4050,-180 4044,-174 4044,-168 4044,-168 4044,-156 4044,-156 4044,-150 4050,-144 4056,-144 4056,-144 4230,-144 4230,-144 4236,-144 4242,-150 4242,-156 4242,-156 4242,-168 4242,-168 4242,-174 4236,-180 4230,-180"/>
<text text-anchor="middle" x="4143" y="-159.5" font-family="sans" font-size="10.00">STAR_DEF_samSub_chr8_bam_males</text>
</g>
<!-- 38&#45;&gt;44 -->
<g id="edge95" class="edge">
<title>38&#45;&gt;44</title>
<path fill="none" stroke="grey" stroke-width="2" d="M4143,-215.7C4143,-207.98 4143,-198.71 4143,-190.11"/>
<polygon fill="grey" stroke="grey" stroke-width="2" points="4146.5,-190.1 4143,-180.1 4139.5,-190.1 4146.5,-190.1"/>
</g>
<!-- 45 -->
<g id="node46" class="node">
<title>45</title>
<path fill="none" stroke="#566bd8" stroke-width="2" d="M4447.5,-180C4447.5,-180 4272.5,-180 4272.5,-180 4266.5,-180 4260.5,-174 4260.5,-168 4260.5,-168 4260.5,-156 4260.5,-156 4260.5,-150 4266.5,-144 4272.5,-144 4272.5,-144 4447.5,-144 4447.5,-144 4453.5,-144 4459.5,-150 4459.5,-156 4459.5,-156 4459.5,-168 4459.5,-168 4459.5,-174 4453.5,-180 4447.5,-180"/>
<text text-anchor="middle" x="4360" y="-159.5" font-family="sans" font-size="10.00">STAR_DEF_samSub_chrX_bam_males</text>
</g>
<!-- 38&#45;&gt;45 -->
<g id="edge96" class="edge">
<title>38&#45;&gt;45</title>
<path fill="none" stroke="grey" stroke-width="2" d="M4195.81,-215.97C4226.39,-206.1 4265.07,-193.62 4297.21,-183.25"/>
<polygon fill="grey" stroke="grey" stroke-width="2" points="4298.51,-186.51 4306.96,-180.11 4296.36,-179.85 4298.51,-186.51"/>
</g>
<!-- 46 -->
<g id="node47" class="node">
<title>46</title>
<path fill="none" stroke="#d8b456" stroke-width="2" d="M4664,-180C4664,-180 4490,-180 4490,-180 4484,-180 4478,-174 4478,-168 4478,-168 4478,-156 4478,-156 4478,-150 4484,-144 4490,-144 4490,-144 4664,-144 4664,-144 4670,-144 4676,-150 4676,-156 4676,-156 4676,-168 4676,-168 4676,-174 4670,-180 4664,-180"/>
<text text-anchor="middle" x="4577" y="-159.5" font-family="sans" font-size="10.00">STAR_DEF_samSub_chrY_bam_males</text>
</g>
<!-- 38&#45;&gt;46 -->
<g id="edge97" class="edge">
<title>38&#45;&gt;46</title>
<path fill="none" stroke="grey" stroke-width="2" d="M4228.74,-219.17C4297.17,-208.13 4393.47,-192.6 4467.47,-180.67"/>
<polygon fill="grey" stroke="grey" stroke-width="2" points="4468.45,-184.05 4477.76,-179.01 4467.33,-177.14 4468.45,-184.05"/>
</g>
<!-- 54 -->
<g id="node55" class="node">
<title>54</title>
<path fill="none" stroke="#569ad8" stroke-width="2" d="M4886,-180C4886,-180 4706,-180 4706,-180 4700,-180 4694,-174 4694,-168 4694,-168 4694,-156 4694,-156 4694,-150 4700,-144 4706,-144 4706,-144 4886,-144 4886,-144 4892,-144 4898,-150 4898,-156 4898,-156 4898,-168 4898,-168 4898,-174 4892,-180 4886,-180"/>
<text text-anchor="middle" x="4796" y="-159.5" font-family="sans" font-size="10.00">STAR_DEF_feautreCounts_gene_males</text>
</g>
<!-- 38&#45;&gt;54 -->
<g id="edge105" class="edge">
<title>38&#45;&gt;54</title>
<path fill="none" stroke="grey" stroke-width="2" d="M4228.59,-226.08C4333.45,-217.28 4516.78,-200.83 4683.85,-180.11"/>
<polygon fill="grey" stroke="grey" stroke-width="2" points="4684.32,-183.58 4693.81,-178.86 4683.46,-176.63 4684.32,-183.58"/>
</g>
<!-- 39&#45;&gt;0 -->
<g id="edge21" class="edge">
<title>39&#45;&gt;0</title>
<path fill="none" stroke="grey" stroke-width="2" d="M2849.33,-143.88C2845.16,-123.35 2835.06,-89.53 2812,-72 2763.63,-35.24 2580.48,-23.61 2501.09,-20.25"/>
<polygon fill="grey" stroke="grey" stroke-width="2" points="2501.17,-16.75 2491.04,-19.85 2500.89,-23.75 2501.17,-16.75"/>
</g>
<!-- 40&#45;&gt;0 -->
<g id="edge32" class="edge">
<title>40&#45;&gt;0</title>
<path fill="none" stroke="grey" stroke-width="2" d="M3934.07,-143.75C3918.17,-122.42 3887.84,-87.07 3852,-72 3724.46,-18.36 2710,-18.3 2501.41,-18.86"/>
<polygon fill="grey" stroke="grey" stroke-width="2" points="2501.26,-15.36 2491.27,-18.89 2501.28,-22.36 2501.26,-15.36"/>
</g>
<!-- 41&#45;&gt;0 -->
<g id="edge45" class="edge">
<title>41&#45;&gt;0</title>
<path fill="none" stroke="grey" stroke-width="2" d="M2974.53,-143.96C2949.15,-134.63 2918.28,-122.1 2892,-108 2867.23,-94.71 2866.18,-82.24 2840,-72 2722.57,-26.08 2570.72,-19.19 2501.44,-18.64"/>
<polygon fill="grey" stroke="grey" stroke-width="2" points="2501.06,-15.14 2491.05,-18.61 2501.03,-22.14 2501.06,-15.14"/>
</g>
<!-- 47 -->
<g id="node48" class="node">
<title>47</title>
<path fill="none" stroke="#97d856" stroke-width="2" d="M3048.5,-108C3048.5,-108 2913.5,-108 2913.5,-108 2907.5,-108 2901.5,-102 2901.5,-96 2901.5,-96 2901.5,-84 2901.5,-84 2901.5,-78 2907.5,-72 2913.5,-72 2913.5,-72 3048.5,-72 3048.5,-72 3054.5,-72 3060.5,-78 3060.5,-84 3060.5,-84 3060.5,-96 3060.5,-96 3060.5,-102 3054.5,-108 3048.5,-108"/>
<text text-anchor="middle" x="2981" y="-87.5" font-family="sans" font-size="10.00">STAR_stats_chr8_bam_males</text>
</g>
<!-- 41&#45;&gt;47 -->
<g id="edge98" class="edge">
<title>41&#45;&gt;47</title>
<path fill="none" stroke="grey" stroke-width="2" d="M3014.12,-143.7C3009.01,-135.56 3002.8,-125.69 2997.16,-116.7"/>
<polygon fill="grey" stroke="grey" stroke-width="2" points="3000.04,-114.71 2991.75,-108.1 2994.11,-118.43 3000.04,-114.71"/>
</g>
<!-- 42&#45;&gt;0 -->
<g id="edge35" class="edge">
<title>42&#45;&gt;0</title>
<path fill="none" stroke="grey" stroke-width="2" d="M3174.38,-143.96C3153.19,-134.75 3127.86,-122.33 3107,-108 3087.82,-94.83 3090.22,-81.55 3069,-72 2966.79,-26 2617.05,-19.85 2501.44,-19.09"/>
<polygon fill="grey" stroke="grey" stroke-width="2" points="2501.33,-15.59 2491.31,-19.03 2501.29,-22.59 2501.33,-15.59"/>
</g>
<!-- 49 -->
<g id="node50" class="node">
<title>49</title>
<path fill="none" stroke="#d87d56" stroke-width="2" d="M3264,-108C3264,-108 3128,-108 3128,-108 3122,-108 3116,-102 3116,-96 3116,-96 3116,-84 3116,-84 3116,-78 3122,-72 3128,-72 3128,-72 3264,-72 3264,-72 3270,-72 3276,-78 3276,-84 3276,-84 3276,-96 3276,-96 3276,-102 3270,-108 3264,-108"/>
<text text-anchor="middle" x="3196" y="-87.5" font-family="sans" font-size="10.00">STAR_stats_chrX_bam_males</text>
</g>
<!-- 42&#45;&gt;49 -->
<g id="edge100" class="edge">
<title>42&#45;&gt;49</title>
<path fill="none" stroke="grey" stroke-width="2" d="M3212.56,-143.7C3210.11,-135.9 3207.16,-126.51 3204.43,-117.83"/>
<polygon fill="grey" stroke="grey" stroke-width="2" points="3207.71,-116.59 3201.38,-108.1 3201.04,-118.69 3207.71,-116.59"/>
</g>
<!-- 43&#45;&gt;0 -->
<g id="edge46" class="edge">
<title>43&#45;&gt;0</title>
<path fill="none" stroke="grey" stroke-width="2" d="M3378.1,-143.85C3360.78,-134.23 3339.55,-121.46 3322,-108 3303.8,-94.03 3305.97,-81.32 3285,-72 3212.82,-39.93 2652.46,-23.71 2501.41,-19.89"/>
<polygon fill="grey" stroke="grey" stroke-width="2" points="2501.33,-16.39 2491.25,-19.64 2501.16,-23.39 2501.33,-16.39"/>
</g>
<!-- 51 -->
<g id="node52" class="node">
<title>51</title>
<path fill="none" stroke="#565bd8" stroke-width="2" d="M3478.5,-108C3478.5,-108 3343.5,-108 3343.5,-108 3337.5,-108 3331.5,-102 3331.5,-96 3331.5,-96 3331.5,-84 3331.5,-84 3331.5,-78 3337.5,-72 3343.5,-72 3343.5,-72 3478.5,-72 3478.5,-72 3484.5,-72 3490.5,-78 3490.5,-84 3490.5,-84 3490.5,-96 3490.5,-96 3490.5,-102 3484.5,-108 3478.5,-108"/>
<text text-anchor="middle" x="3411" y="-87.5" font-family="sans" font-size="10.00">STAR_stats_chrY_bam_males</text>
</g>
<!-- 43&#45;&gt;51 -->
<g id="edge102" class="edge">
<title>43&#45;&gt;51</title>
<path fill="none" stroke="grey" stroke-width="2" d="M3411,-143.7C3411,-135.98 3411,-126.71 3411,-118.11"/>
<polygon fill="grey" stroke="grey" stroke-width="2" points="3414.5,-118.1 3411,-108.1 3407.5,-118.1 3414.5,-118.1"/>
</g>
<!-- 44&#45;&gt;0 -->
<g id="edge3" class="edge">
<title>44&#45;&gt;0</title>
<path fill="none" stroke="grey" stroke-width="2" d="M4091.92,-143.91C4061.64,-133.68 4022.56,-120.32 3988,-108 3944.69,-92.56 3936.1,-80.97 3891,-72 3613.74,-16.88 2698.01,-17.91 2501.39,-18.79"/>
<polygon fill="grey" stroke="grey" stroke-width="2" points="2501.26,-15.29 2491.28,-18.83 2501.29,-22.29 2501.26,-15.29"/>
</g>
<!-- 48 -->
<g id="node49" class="node">
<title>48</title>
<path fill="none" stroke="#d8b456" stroke-width="2" d="M4168.5,-108C4168.5,-108 4009.5,-108 4009.5,-108 4003.5,-108 3997.5,-102 3997.5,-96 3997.5,-96 3997.5,-84 3997.5,-84 3997.5,-78 4003.5,-72 4009.5,-72 4009.5,-72 4168.5,-72 4168.5,-72 4174.5,-72 4180.5,-78 4180.5,-84 4180.5,-84 4180.5,-96 4180.5,-96 4180.5,-102 4174.5,-108 4168.5,-108"/>
<text text-anchor="middle" x="4089" y="-87.5" font-family="sans" font-size="10.00">STAR_DEF_stats_chr8_bam_males</text>
</g>
<!-- 44&#45;&gt;48 -->
<g id="edge99" class="edge">
<title>44&#45;&gt;48</title>
<path fill="none" stroke="grey" stroke-width="2" d="M4129.65,-143.7C4123.24,-135.39 4115.44,-125.28 4108.39,-116.14"/>
<polygon fill="grey" stroke="grey" stroke-width="2" points="4111.07,-113.88 4102.19,-108.1 4105.53,-118.16 4111.07,-113.88"/>
</g>
<!-- 45&#45;&gt;0 -->
<g id="edge47" class="edge">
<title>45&#45;&gt;0</title>
<path fill="none" stroke="grey" stroke-width="2" d="M4310.92,-143.99C4286.96,-134.8 4258.17,-122.37 4234,-108 4211.99,-94.91 4213.04,-80.85 4189,-72 4107.1,-41.85 2744.91,-22.67 2501.18,-19.48"/>
<polygon fill="grey" stroke="grey" stroke-width="2" points="2501.1,-15.97 2491.05,-19.34 2501.01,-22.97 2501.1,-15.97"/>
</g>
<!-- 50 -->
<g id="node51" class="node">
<title>50</title>
<path fill="none" stroke="#80d856" stroke-width="2" d="M4415,-108C4415,-108 4255,-108 4255,-108 4249,-108 4243,-102 4243,-96 4243,-96 4243,-84 4243,-84 4243,-78 4249,-72 4255,-72 4255,-72 4415,-72 4415,-72 4421,-72 4427,-78 4427,-84 4427,-84 4427,-96 4427,-96 4427,-102 4421,-108 4415,-108"/>
<text text-anchor="middle" x="4335" y="-87.5" font-family="sans" font-size="10.00">STAR_DEF_stats_chrX_bam_males</text>
</g>
<!-- 45&#45;&gt;50 -->
<g id="edge101" class="edge">
<title>45&#45;&gt;50</title>
<path fill="none" stroke="grey" stroke-width="2" d="M4353.82,-143.7C4351,-135.81 4347.61,-126.3 4344.48,-117.55"/>
<polygon fill="grey" stroke="grey" stroke-width="2" points="4347.77,-116.34 4341.11,-108.1 4341.18,-118.7 4347.77,-116.34"/>
</g>
<!-- 46&#45;&gt;0 -->
<g id="edge4" class="edge">
<title>46&#45;&gt;0</title>
<path fill="none" stroke="grey" stroke-width="2" d="M4538.31,-143.91C4518.63,-134.48 4494.76,-121.88 4475,-108 4455.7,-94.44 4457.85,-80.88 4436,-72 4343,-34.19 2765.71,-21.18 2501.43,-19.26"/>
<polygon fill="grey" stroke="grey" stroke-width="2" points="2501.22,-15.76 2491.2,-19.19 2501.17,-22.76 2501.22,-15.76"/>
</g>
<!-- 52 -->
<g id="node53" class="node">
<title>52</title>
<path fill="none" stroke="#b6d856" stroke-width="2" d="M4655.5,-108C4655.5,-108 4496.5,-108 4496.5,-108 4490.5,-108 4484.5,-102 4484.5,-96 4484.5,-96 4484.5,-84 4484.5,-84 4484.5,-78 4490.5,-72 4496.5,-72 4496.5,-72 4655.5,-72 4655.5,-72 4661.5,-72 4667.5,-78 4667.5,-84 4667.5,-84 4667.5,-96 4667.5,-96 4667.5,-102 4661.5,-108 4655.5,-108"/>
<text text-anchor="middle" x="4576" y="-87.5" font-family="sans" font-size="10.00">STAR_DEF_stats_chrY_bam_males</text>
</g>
<!-- 46&#45;&gt;52 -->
<g id="edge103" class="edge">
<title>46&#45;&gt;52</title>
<path fill="none" stroke="grey" stroke-width="2" d="M4576.75,-143.7C4576.64,-135.98 4576.51,-126.71 4576.39,-118.11"/>
<polygon fill="grey" stroke="grey" stroke-width="2" points="4579.89,-118.05 4576.24,-108.1 4572.89,-118.15 4579.89,-118.05"/>
</g>
<!-- 47&#45;&gt;0 -->
<g id="edge38" class="edge">
<title>47&#45;&gt;0</title>
<path fill="none" stroke="grey" stroke-width="2" d="M2901.4,-74.14C2896.87,-73.39 2892.38,-72.67 2888,-72 2745.78,-50.13 2575.67,-30.98 2501.58,-22.98"/>
<polygon fill="grey" stroke="grey" stroke-width="2" points="2501.67,-19.47 2491.36,-21.88 2500.93,-26.43 2501.67,-19.47"/>
</g>
<!-- 48&#45;&gt;0 -->
<g id="edge6" class="edge">
<title>48&#45;&gt;0</title>
<path fill="none" stroke="grey" stroke-width="2" d="M3997.33,-74.41C3989.79,-73.49 3982.27,-72.67 3975,-72 3389.63,-18.26 2672.1,-17.98 2501.6,-18.76"/>
<polygon fill="grey" stroke="grey" stroke-width="2" points="2501.37,-15.26 2491.39,-18.81 2501.41,-22.26 2501.37,-15.26"/>
</g>
<!-- 49&#45;&gt;0 -->
<g id="edge31" class="edge">
<title>49&#45;&gt;0</title>
<path fill="none" stroke="grey" stroke-width="2" d="M3115.83,-73.97C3111.16,-73.26 3106.52,-72.6 3102,-72 2874.74,-42.08 2599.58,-25.97 2501.19,-20.84"/>
<polygon fill="grey" stroke="grey" stroke-width="2" points="2501.32,-17.34 2491.15,-20.32 2500.96,-24.33 2501.32,-17.34"/>
</g>
<!-- 50&#45;&gt;0 -->
<g id="edge42" class="edge">
<title>50&#45;&gt;0</title>
<path fill="none" stroke="grey" stroke-width="2" d="M4242.89,-73.71C4237.52,-73.06 4232.2,-72.49 4227,-72 3874.9,-39.13 2723.07,-22.43 2501.17,-19.48"/>
<polygon fill="grey" stroke="grey" stroke-width="2" points="2501.07,-15.98 2491.03,-19.34 2500.98,-22.98 2501.07,-15.98"/>
</g>
<!-- 51&#45;&gt;0 -->
<g id="edge51" class="edge">
<title>51&#45;&gt;0</title>
<path fill="none" stroke="grey" stroke-width="2" d="M3331.45,-73.82C3326.9,-73.15 3322.4,-72.54 3318,-72 3003.46,-33.63 2620.16,-22.41 2501.08,-19.73"/>
<polygon fill="grey" stroke="grey" stroke-width="2" points="2501.1,-16.23 2491.03,-19.51 2500.95,-23.23 2501.1,-16.23"/>
</g>
<!-- 52&#45;&gt;0 -->
<g id="edge27" class="edge">
<title>52&#45;&gt;0</title>
<path fill="none" stroke="grey" stroke-width="2" d="M4484.46,-73.54C4479.57,-72.96 4474.73,-72.44 4470,-72 4066.87,-34.51 2742.17,-21.41 2501.64,-19.31"/>
<polygon fill="grey" stroke="grey" stroke-width="2" points="2501.35,-15.81 2491.32,-19.22 2501.29,-22.81 2501.35,-15.81"/>
</g>
<!-- 53&#45;&gt;0 -->
<g id="edge7" class="edge">
<title>53&#45;&gt;0</title>
<path fill="none" stroke="grey" stroke-width="2" d="M3591.83,-143.8C3573.11,-122.51 3537.93,-87.21 3499,-72 3404.67,-35.14 2675.62,-22.12 2501.33,-19.52"/>
<polygon fill="grey" stroke="grey" stroke-width="2" points="2501.18,-16.01 2491.13,-19.37 2501.08,-23.01 2501.18,-16.01"/>
</g>
<!-- 54&#45;&gt;0 -->
<g id="edge30" class="edge">
<title>54&#45;&gt;0</title>
<path fill="none" stroke="grey" stroke-width="2" d="M4780.09,-143.97C4758.78,-122.51 4718.68,-86.67 4676,-72 4568.96,-35.21 2783.64,-21.24 2501.43,-19.25"/>
<polygon fill="grey" stroke="grey" stroke-width="2" points="2501.32,-15.75 2491.3,-19.18 2501.28,-22.75 2501.32,-15.75"/>
</g>
</g>
</svg>
